<svg width="185" height="47" viewBox="0 0 185 47" fill="none" xmlns="http://www.w3.org/2000/svg">
<path d="M52.935 33.3577V39.4916H49.098V19.5702H52.935V20.521C54.0779 19.7783 55.4091 19.3776 56.7721 19.3658C58.7565 19.4078 60.6454 20.2257 62.034 21.6439C63.4226 23.0622 64.2002 24.9681 64.2002 26.953C64.2002 28.9378 63.4226 30.8437 62.034 32.262C60.6454 33.6803 58.7565 34.4981 56.7721 34.5402C55.403 34.5424 54.0653 34.1302 52.935 33.3577V33.3577ZM52.935 25.1384V28.6551C53.2374 29.2986 53.7071 29.849 54.2951 30.2487C54.8831 30.6484 55.5677 30.8827 56.2772 30.9271C56.9868 30.9715 57.6953 30.8244 58.3285 30.5011C58.9618 30.1779 59.4965 29.6903 59.8767 29.0896C60.2569 28.4888 60.4687 27.7969 60.4898 27.0863C60.511 26.3756 60.3407 25.6723 59.9969 25.05C59.6531 24.4277 59.1483 23.9093 58.5354 23.549C57.9225 23.1886 57.2241 22.9996 56.5131 23.0018C55.7774 22.992 55.0535 23.1866 54.4218 23.5638C53.7901 23.941 53.2754 24.4861 52.935 25.1384V25.1384Z" fill="white"/>
<path d="M66.4055 15.5562C66.3944 15.2664 66.4423 14.9773 66.5464 14.7065C66.6505 14.4358 66.8085 14.189 67.0109 13.9812C67.2133 13.7734 67.4558 13.6089 67.7237 13.4977C67.9916 13.3865 68.2793 13.331 68.5694 13.3344C68.8638 13.3294 69.1563 13.3833 69.4296 13.4928C69.703 13.6024 69.9517 13.7654 70.1612 13.9724C70.3706 14.1793 70.5367 14.426 70.6496 14.698C70.7624 14.97 70.8199 15.2618 70.8185 15.5562C70.8122 16.1483 70.5723 16.7139 70.1511 17.13C69.7299 17.5461 69.1615 17.779 68.5694 17.778C68.2807 17.7768 67.9951 17.718 67.7294 17.6051C67.4636 17.4923 67.223 17.3277 67.0216 17.1209C66.8202 16.914 66.6619 16.6692 66.5562 16.4005C66.4504 16.1319 66.3992 15.8449 66.4055 15.5562ZM66.6372 19.5705H70.539V34.3122H66.6372V19.5705Z" fill="white"/>
<path d="M72.8356 26.8968C72.8287 25.9052 73.0199 24.9222 73.3981 24.0055C73.7763 23.0888 74.3337 22.2568 75.0378 21.5585C75.7418 20.8602 76.5783 20.3095 77.498 19.9388C78.4178 19.5681 79.4023 19.3849 80.3939 19.3999C81.7536 19.3982 83.0923 19.7355 84.2889 20.3813V19.5703H88.0987V33.4737C88.0987 37.3107 84.7796 39.3894 80.6256 39.3894C77.8995 39.3894 75.3164 38.5818 73.616 37.2528L75.204 34.5267C76.8207 35.5633 78.7052 36.1046 80.6256 36.084C83.3075 36.084 84.1457 35.0174 84.2616 33.2863C83.1034 34.0173 81.7635 34.4093 80.3939 34.4176C75.9911 34.4176 72.8356 31.136 72.8356 26.8968ZM84.2889 28.5393V25.2509C83.9668 24.5654 83.4573 23.985 82.8193 23.5768C82.1814 23.1686 81.4409 22.9492 80.6835 22.9439C80.1603 22.939 79.6413 23.0374 79.1562 23.2336C78.6711 23.4298 78.2296 23.7199 77.8569 24.0872C77.4842 24.4544 77.1878 24.8917 76.9846 25.3739C76.7813 25.8561 76.6754 26.3736 76.6727 26.8968C76.6727 29.1766 78.4038 30.7612 80.6563 30.7612C81.4117 30.7812 82.1567 30.5821 82.8014 30.1878C83.446 29.7935 83.9627 29.221 84.2889 28.5393V28.5393Z" fill="white"/>
<path d="M90.4028 26.8969C90.3954 25.9051 90.5864 24.9219 90.9643 24.005C91.3423 23.0881 91.8998 22.2559 92.6039 21.5575C93.3081 20.8591 94.1447 20.3084 95.0647 19.9379C95.9847 19.5674 96.9694 19.3845 97.9611 19.4C99.3204 19.3981 100.659 19.7341 101.856 20.378V19.5704H105.662V33.4737C105.662 37.3108 102.347 39.3895 98.1928 39.3895C95.4666 39.3895 92.8836 38.5819 91.1832 37.2529L92.7678 34.5267C94.3858 35.5633 96.2713 36.1045 98.1928 36.084C100.875 36.084 101.713 35.0174 101.825 33.2863C100.668 34.0174 99.3296 34.4094 97.9611 34.4177C93.5481 34.4177 90.4028 31.1361 90.4028 26.8969ZM101.856 28.5394V25.251C101.534 24.5657 101.024 23.9856 100.386 23.5774C99.7483 23.1692 99.008 22.9496 98.2507 22.944C97.7274 22.9386 97.2081 23.0367 96.7229 23.2327C96.2376 23.4288 95.7959 23.7188 95.4231 24.0862C95.0504 24.4536 94.7539 24.891 94.5508 25.3734C94.3478 25.8558 94.2421 26.3735 94.2399 26.8969C94.2399 29.1766 95.971 30.7612 98.2201 30.7612C98.9759 30.7815 99.7215 30.5825 100.367 30.1882C101.012 29.794 101.529 29.2213 101.856 28.5394V28.5394Z" fill="white"/>
<path d="M111.258 19.5702L115.126 29.4048L119.106 19.5702H123.144L114.662 39.4745H111.057L113.19 34.1653L107.002 19.5702H111.258Z" fill="white"/>
<path d="M122.422 19.5702H126.545L130.293 29.5206L134.015 19.5702H138.053L132.14 34.3119H128.276L122.422 19.5702Z" fill="white"/>
<path d="M138.352 26.8388C138.352 22.6849 141.324 19.2533 145.968 19.2533C146.963 19.2334 147.952 19.4117 148.877 19.7779C149.802 20.144 150.645 20.6906 151.357 21.3859C152.069 22.0811 152.635 22.9111 153.023 23.8274C153.41 24.7437 153.612 25.728 153.615 26.723C153.643 27.0882 153.643 27.455 153.615 27.8203H141.978C142.094 29.8955 144.084 31.2518 146.217 31.2518C147.979 31.2518 149.018 30.7611 150.228 29.7524L152.324 31.9742C150.62 33.7633 148.916 34.5982 146.207 34.5982C141.228 34.5982 138.352 30.877 138.352 26.8388ZM142.189 25.0805H149.632C149.257 23.6935 147.928 22.4838 145.911 22.4838C143.566 22.4906 142.585 23.6663 142.179 25.0805H142.189Z" fill="white"/>
<path d="M154.409 32.7137L156.283 29.6467C157.978 30.7733 159.963 31.3841 161.998 31.4051C163.93 31.4051 164.912 30.9144 164.912 30.0795C164.912 29.5309 164.448 29.1254 163.467 28.9243L159.429 28.0792C156.457 27.4454 155.101 26.0346 155.101 23.7242C155.101 21.2706 157.18 19.2226 161.477 19.2226C163.757 19.2019 166.001 19.8002 167.968 20.9537L166.206 23.898C164.912 23.2164 163.18 22.4531 161.361 22.4531C159.718 22.4531 158.764 22.8586 158.764 23.6083C158.764 24.099 159.105 24.4159 160.062 24.5897L163.47 25.2236C167.164 25.946 168.582 27.5885 168.582 29.8103C168.582 33.0135 165.378 34.6867 161.889 34.6867C159.261 34.7368 156.671 34.0536 154.409 32.7137V32.7137Z" fill="white"/>
<path d="M169.363 19.5703H171.554V15.5015L175.391 13.0207V19.5703H177.64V22.9166H175.391V34.3119H171.543V22.9166H169.363V19.5703Z" fill="white"/>
<path d="M39.4991 22.1807C39.4368 21.241 39.2827 20.3097 39.0391 19.4C38.0352 15.4557 35.5537 12.0482 32.1078 9.88234C29.8874 8.44381 27.3386 7.59148 24.6995 7.40495C23.5895 7.32536 22.4744 7.35504 21.3702 7.49355C20.2083 7.6486 19.066 7.92617 17.9625 8.32162C15.0221 9.37917 12.4552 11.2738 10.5782 13.7721C8.70115 16.2703 7.59594 19.2631 7.3987 22.3817C7.36462 22.9576 7.36462 23.5335 7.36462 24.1094V38.081C7.36462 38.4425 7.50823 38.7892 7.76386 39.0448C8.01949 39.3004 8.36619 39.444 8.7277 39.444H14.1459C14.485 39.4457 14.8126 39.321 15.0646 39.0941C15.3166 38.8673 15.4751 38.5547 15.509 38.2173V38.2173C15.5443 38.0861 15.5626 37.951 15.5635 37.8152V37.4744C15.5601 37.4495 15.5601 37.4243 15.5635 37.3994V37.379C15.6004 37.3879 15.6352 37.4042 15.6658 37.4267C17.6856 38.545 19.9233 39.2134 22.2256 39.3861C23.1493 39.4554 24.0772 39.4462 24.9994 39.3588C25.8318 39.2828 26.6568 39.1403 27.4666 38.9329C30.6615 38.1096 33.5265 36.3247 35.6737 33.8197C37.8209 31.3147 39.1468 28.2106 39.4719 24.9273C39.5636 24.0144 39.5728 23.0952 39.4991 22.1807ZM26.3216 31.1191C26.3135 31.1672 26.2884 31.2108 26.2509 31.2421C26.2134 31.2733 26.1659 31.2901 26.1171 31.2894H20.7875C20.7391 31.2888 20.6923 31.2715 20.6551 31.2405C20.6179 31.2095 20.5924 31.1666 20.583 31.1191V31.085V30.8873C20.5823 30.643 20.6098 30.3995 20.6648 30.1615C20.6989 30.0763 20.7194 29.9809 20.7534 29.8923C20.7875 29.8037 20.8216 29.7219 20.8557 29.6333C20.8897 29.5447 20.9443 29.4697 20.9954 29.3914L21.0703 29.2755C21.121 29.2 21.1756 29.1272 21.2339 29.0574C21.2953 28.9824 21.3566 28.9143 21.4179 28.8461C21.7389 28.5333 22.1287 28.2999 22.5561 28.1646C22.1873 27.9646 21.8956 27.6474 21.7271 27.2631C21.5586 26.8789 21.5229 26.4494 21.6257 26.0426C21.7285 25.6358 21.9638 25.2749 22.2946 25.0167C22.6254 24.7586 23.0327 24.618 23.4523 24.6172C23.8725 24.6165 24.2809 24.756 24.6128 25.0136C24.9447 25.2712 25.1813 25.6321 25.2849 26.0393C25.3886 26.4465 25.3534 26.8766 25.1851 27.2616C25.0167 27.6465 24.7247 27.9643 24.3554 28.1646C24.9294 28.3533 25.4292 28.7185 25.7835 29.208C26.1378 29.6976 26.3285 30.2865 26.3284 30.8907C26.3352 30.9623 26.3284 31.0441 26.3216 31.1191ZM35.5224 19.5022H11.4061C11.3609 19.5025 11.3163 19.492 11.2761 19.4715C11.2358 19.451 11.201 19.4211 11.1747 19.3844C11.1483 19.3477 11.1311 19.3052 11.1245 19.2605C11.118 19.2158 11.1222 19.1701 11.1369 19.1274C12.0357 16.5771 13.7037 14.3686 15.9107 12.8063C18.1177 11.2441 20.7551 10.4051 23.4591 10.4051C26.1631 10.4051 28.8005 11.2441 31.0076 12.8063C33.2146 14.3686 34.8825 16.5771 35.7813 19.1274C35.796 19.1701 35.8003 19.2158 35.7937 19.2605C35.7872 19.3052 35.77 19.3477 35.7436 19.3844C35.7173 19.4211 35.6825 19.451 35.6422 19.4715C35.6019 19.492 35.5573 19.5025 35.5121 19.5022H35.5224Z" fill="white"/>
</svg>
